<svg xmlns="http://www.w3.org/2000/svg" viewBox="0 0 15.004039 14.940373">
  <g stroke-linecap="round" stroke-linejoin="round" stroke-width=".2">
    <path fill="#303030" stroke="#303030" d="M14.8887886 7.4563683c.01299.5673813-.0973 1.1545783-.258364 1.6898843-.148922.494963-.345093.939151-.436225 1.43415-.06983.3793-.276144.696246-.52381.999473-.148724.182089-.332141.35358-.454377.54651-.226532.357545-.553726.582604-.853177.814887-.340934.264461-.663969.559664-1.022119.793623-.228816.149473-.490274.234712-.720188.398897-.420676.30041-.938219.475416-1.459692.552463-.579843.08567-1.164544.05858-1.626333.124398-.7394548.10539-1.4041507-.085201-2.0857006-.325091-.4887219-.17202-1.0140222-.33933-1.4523998-.580354-.5135474-.282353-.9587887-.668462-1.388296-1.060629-.415335-.379227-.8179651-.761252-1.1376028-1.226054-.1715046-.249394-.4225055-.500009-.5971396-.781444-.1676269-.270143-.2593316-.570768-.4037772-.828113-.3168074-.564426-.3849592-1.152927-.3669489-1.783905.0075849-.2657328.0849881-.5971718.0775792-.8436991-.0106414-.3540849-.0242886-.7182264.0141644-1.0685608.0496826-.4526443.2299051-.8618247.3772871-1.2819347.0655846-.1869479.0644103-.4008713.1455896-.579236.0828131-.1819544.2180138-.3412629.3165145-.5058637.2468049-.4124267.5140085-.8425032.8378121-1.1791063.2659744-.2764879.5983496-.4892449.9105377-.7286914.4901826-.3759672.9888846-.7659227 1.5484298-1.1754351C4.7097556.5850109 5.3423345.5046256 5.7958066.386118c.6361671-.166252 1.136881-.2683707 1.738697-.284035.436341-.011357.825114.023001 1.226883.1150154.360328.082523.735433.2183396 1.092923.294335.642873.1366624 1.096725.4267704 1.538797.7429825.298662.2136317.628295.3805328.933837.580803.585769.3839474.802633.8878066 1.10437 1.4149919.242002.4228184.582746.8480277.881154 1.3329951.361716.5878548.533342 1.2768313.585037 2.0012356.02032.2846645-.01526.5860112-.0087.8719268z"/>
    <path fill="#b1b1b1" stroke="#b1b1b1" d="M5.7770763 3.380929c-.011626-.04467.1260782-.0000085.1501204-.00742.068302-.016713.1306574-.015584.1906629-.00741.1167461.02345.1069557.020049.1686024.012019.1958024-.052905.2218492-.00881.312679-.00173.1582854-.02586.3165709-.00751.4748563-.00262.1304079-.00189.2586395-.014664.3969153.022787.135496.012007.19725-.00364.268764-.015626.163232-.00159.320006-.035469.49065 0 .273041.03509.395836.00189.58753 0 .165192.01853.265617.00468.384395 0 .06557.035157.01732.2247835-.03099.4144979-.02765.093313-.04578.1929703-.02387.3193175.01017.1412681-.01489.2598058-.02424.381552-.0094.1228611-.0033.2487596-.03073.3536575-.01062.1394637-.02125.2643623-.03187.4262315-.0456.2756772-.03007.3557245-.03826.5116811.04946.1678481-.02844.383458-.04302.5753182.03911.4728186.0074.5851953-.04447.594749.02145.1638105-.07431.3099728-.03865.5169673.01801.1947986-.06619.375325-.04532.6061636.0068.176691-.01614.303732-.03297.440986.01198.07217.02881.145039-.01564.209151.168691.03907.356705.02018.550213-.0152.132705-.03256.271497-.02859.412493-.0114.203895.02721.228088.0031.328251.00066.146801-.01865.277581-.0046.384128.00095-.128989.168337-.216181.402537-.395082.503139-.122852.114581-.187233.220808-.257455.32787-.07682.153862-.08461.147691-.149359.19021-.102297.05824-.200461.227657-.298423.380043-.05793.161611-.178527.232589-.271444.345685-.02185.0972-.136731.182766-.214362.272991.000417.06538-.09872.148866-.179883.229081-.03392.105472-.09932.155879-.163558.208293-.09975.118015-.193472.208872-.307648.391791-.04659.08754-.137384.189811-.229771.292614-.06057.04768-.123507.118964-.191848.244318-.0729.113052-.158405.226103-.266316.339155-.096874-.119965-.157177-.209887-.2119288-.312316-.073551-.072407-.1277092-.177849-.1864414-.274756-.1417165-.128298-.1293628-.186797-.1880179-.277079-.0389626-.11214-.1053626-.173978-.1665288-.245411-.0521254-.049333-.1149548-.128641-.1242841-.179188-.0324279-.175698-.0682675-.315197-.1489143-.22342-.1766006-.138469-.2273094-.327294-.3348087-.493403-.1304899-.092812-.130465-.254792-.2321116-.342059-.1082733-.061595-.1302512-.183597-.1896132-.27943-.0722646-.012379-.1264379-.148381-.1828045-.269396-.02962-.02632-.058425-.05616-.079903-.117752-.045452-.04448-.073827-.08899-.138697-.170734-.017419-.02195-.025298-.05471-.038465-.09035-.026296-.06841-.085315-.145547-.1526023-.224888.043154-.02958.059197.0187.1679585-.0053.1348723.04635.1910534.0022.2760858-.0088.070827-.05008.1474026-.03491.228639-.05329.039625-.009.077183.0068.1136786.04242.1366362-.0168.2696333-.03724.4461449-.01416.096152-.01766.1143172-.04423.2988215-.0015-.018616-.07423-.00443-.103154-.018329-.256338-.00681-.0751-.00734-.141104-.035681-.274013-.023963-.11237-.06407-.145727-.034013-.364762.0119968-.0874128-.0022404-.1820759-.0410248-.2614983-.0334778-.0685557-.057219-.1548292-.0759864-.256181-.0553294-.1001118-.065273-.281918-.0805142-.4541884.023283-.1594262-.0638603-.3740655-.0998238-.5631149-.0924971-.0991856-.0666297-.3048991-.0836709-.471995-.0196678-.1293738-.0088522-.2339797-.0704514-.3974227-.0682565-.1307435-.0284236-.3288123-.072372-.408257-.0224503-.121072-.0660553-.2209894-.0648337-.3657333.017214-.0619651-.0118631-.1677851-.0500285-.282215.0061928-.099115-.0173779-.1349828-.0332041-.1873074-.0301685-.0531494-.0054675-.1092437-.0302089-.170411-.0316228-.0362579-.0269475-.068497-.0180768-.1019729-.0102534-.0578338-.0483276-.1002115-.030757-.173503-.0007345-.0789914-.0075897-.1612784-.046209-.2606693.0025-.098264-.042027-.2304947-.046105-.2600794Z"/>
  </g>
</svg>
