<svg xmlns="http://www.w3.org/2000/svg" viewBox="0 0 37.123 36.923">
  <g transform="translate(-3.609 -1.697)">
    <circle cx="21.57" cy="20.659" r="17.961" fill="#d0927f" opacity=".8"/>
    <circle cx="22.77" cy="19.659" r="17.961" fill="#ea9127"/>
    <path fill="#3c1169" stroke="#6829a8" stroke-linecap="round" stroke-linejoin="round" stroke-width=".813" d="M10.859 29.746c3.022 4.19 24.882-2.734 25.165-6.679 1.024-2.184-3.353-2.168-5.545-3.043-.457-1.118.096-2.034-2.832-3.646-.852-4.375-1.547-5.445-2.273-7.164 1.312.195 2.696.99 4.534 3.57-.021-3.496 1.784-6.77-5.986-6.315-2.652 2.42-4.085 2.736-5.897 6.143-1.036 4.076-.908 8.634-2.254 10.812-1.207.224-1.497-.077-2.13.201-.168 1.479-.507 1.768-.799 2.376-1.094 1.19-2.77 2.304-1.983 3.745z"/>
  </g>
</svg>
