<svg xmlns="http://www.w3.org/2000/svg" viewBox="0 0 37.123 36.923">
  <g transform="translate(-3.609 -1.697)">
    <circle cx="21.57" cy="20.659" r="17.961" fill="#c3c3c3" opacity=".8"/>
    <circle cx="22.77" cy="19.659" r="17.961" fill="#2784ea"/>
    <path fill="#fff" stroke="#131b3e" stroke-linecap="round" stroke-linejoin="round" stroke-width=".75" d="M28.75 15.485c2.578 3.773 4.55-1.34 4.895 3.217.347 4.556-2.375-.199-4.353 3.92-1.978 4.12 3.435 3.27-.338 5.849-3.772 2.578-1.015-2.157-5.571-1.81-4.557.346-1.115 4.61-5.234 2.631-4.12-1.978 1.36-1.958-1.218-5.73-2.578-3.773-4.55 1.34-4.896-3.217-.347-4.556 2.375.199 4.353-3.92 1.978-4.12-3.435-3.27.338-5.849 3.773-2.578 1.015 2.157 5.571 1.81 4.557-.346 1.115-4.61 5.234-2.631 4.12 1.978-1.36 1.958 1.218 5.73z"/>
    <circle cx="23.141" cy="19.323" r="1.61" fill="#2784ea" stroke="#131b3e" stroke-linecap="round" stroke-linejoin="round" stroke-width=".64"/>
  </g>
</svg>
