<svg xmlns="http://www.w3.org/2000/svg" viewBox="0 0 37.123 36.923">
  <g transform="translate(-3.609 -1.697)">
    <circle cx="21.57" cy="20.659" r="17.961" fill="#c3c3c3" opacity=".8"/>
    <circle cx="22.77" cy="19.659" r="17.961" fill="#2784ea"/>
    <rect width="17.396" height="23.901" x="8.433" y="13.123" fill="#fff" rx=".375" ry=".375" transform="rotate(-14.435)"/>
    <path fill="#c8c8c8" d="m13.558 12.033 7.396-1.903 1.48 5.752-7.396 1.904z"/>
    <path fill="none" stroke="#c8c8c8" stroke-linecap="round" stroke-linejoin="round" stroke-width=".813" d="m22.26 10.377 5.272-1.357m-4.797 3.206 5.273-1.357m-4.797 3.206 5.273-1.357m-4.832 3.069 5.273-1.357m-12.909 5.733 13.49-3.473m-12.962 5.527 13.491-3.473m-12.962 5.527L30.564 20.8m-12.98 5.457 13.491-3.472m-12.962 5.527 13.491-3.473m-12.962 5.527 13.491-3.472"/>
  </g>
</svg>
