<?xml version="1.0" encoding="UTF-8" standalone="no"?>
<svg
   viewBox="0 0 13572.72 2634.9736"
   width="13572.72"
   preserveAspectRatio="xMinYMin"
   version="1.1"
   id="svg18"
   sodipodi:docname="HalloweenTSmap2024.svg"
   height="2634.9736"
   xmlns:inkscape="http://www.inkscape.org/namespaces/inkscape"
   xmlns:sodipodi="http://sodipodi.sourceforge.net/DTD/sodipodi-0.dtd"
   xmlns:xlink="http://www.w3.org/1999/xlink"
   xmlns="http://www.w3.org/2000/svg"
   xmlns:svg="http://www.w3.org/2000/svg">
  <sodipodi:namedview
     id="namedview18"
     pagecolor="#ffffff"
     bordercolor="#000000"
     borderopacity="0.25"
     inkscape:showpageshadow="2"
     inkscape:pageopacity="0.0"
     inkscape:pagecheckerboard="0"
     inkscape:deskcolor="#d1d1d1" />
  <defs
     id="defs5">
    <!-- Gradient centered in the "boden" element and constrained to its width -->
    <linearGradient
       id="a"
       x1="0"
       y1="0"
       x2="120"
       y2="0">
      <stop
         offset="0"
         stop-color="#ed1b1b"
         id="stop1" />
      <stop
         offset=".392"
         stop-color="#a65a17"
         stop-opacity="0"
         id="stop2" />
      <stop
         offset=".595"
         stop-color="#7d8016"
         stop-opacity="0"
         id="stop3" />
      <stop
         offset="1"
         stop-color="#13e013"
         id="stop4" />
    </linearGradient>
    <linearGradient
       xlink:href="#a"
       id="d"
       x1="2.0250001"
       x2="111.6"
       y1="7.507"
       y2="8.717"
       gradientTransform="translate(49.077557,-116.33266)"
       gradientUnits="userSpaceOnUse" />
    <filter
       id="b"
       width="1.1907321"
       height="1.0326238"
       x="-0.095366061"
       y="-0.016311908"
       color-interpolation-filters="sRGB">
      <feGaussianBlur
         stdDeviation=".098"
         id="feGaussianBlur4" />
    </filter>
    <filter
       id="c"
       width="1.259733"
       height="1.1424828"
       x="-0.12986648"
       y="-0.071241327"
       color-interpolation-filters="sRGB">
      <feGaussianBlur
         stdDeviation=".077"
         id="feGaussianBlur5" />
    </filter>
  </defs>
  <!-- Boden element definition -->
  <path
     id="boden"
     fill="#d5fe4a"
     stroke="#d5fe4a"
     stroke-linecap="round"
     stroke-width="0.813"
     d="m 48.780003,-87.590656 v -11.187 c 9.311,-7.701004 34.922,0.18 45.256,-0.278 31.309997,-7.826004 60.249997,-3.971004 67.036997,0.278 v 11.175 z"
     inkscape:export-filename="boden.svg"
     inkscape:export-xdpi="96"
     inkscape:export-ydpi="96" />
  <!-- Other elements placed relative to the new layout -->
  <path
     fill="#568b60"
     stroke="#3a3a3a"
     stroke-width="0.4"
     d="m 73.580003,-95.368656 c 0.12,-1.743 -0.042,-3.7 -1.394,-6.547004 0.185,-0.944 0.722,-2.005 1.463,-3.134 2.306,-1 3.267,-0.923 4.736,-1.254 0.468,0.607 1.067,1.078 2.09,1.88 0.284,3.62 1.211,5.479004 1.218,7.453004 -1.971,-0.998 -5.231,1.268 -8.114,1.602 z"
     id="path5" />
  <path
     fill="#568b60"
     stroke="#3a3a3a"
     stroke-width="0.4"
     d="m 78.141003,-105.43266 c -0.928,0.093 -2.38,0.464 -3.865,1.114 -0.547,0.641 -0.986,1.426 -1.254,2.438 0.692,1.885004 1.573,3.790004 1.254,6.303004"
     id="path6" />
  <path
     fill="#568b60"
     stroke="#3a3a3a"
     stroke-width="0.4"
     d="m 76.957003,-103.16866 c 0.312,0.998 0.536,1.996 0.662,2.994"
     id="path7" />
  <path
     fill="#568b60"
     stroke="#3a3a3a"
     stroke-width="0.4"
     d="m 76.365003,-101.81066 c 0.723,-0.343 1.378,-0.551 1.916,-0.523"
     id="path8" />
  <ellipse
     cx="103.79585"
     cy="-110.04665"
     fill="#e5e700"
     fill-opacity="0.729"
     rx="1.724"
     ry="1.8890001"
     id="ellipse8" />
  <ellipse
     cx="108.91785"
     cy="-110.04665"
     fill="#e5e700"
     fill-opacity="0.729"
     rx="1.724"
     ry="1.8890001"
     id="ellipse9" />
  <path
     fill="none"
     stroke="#e5e700"
     stroke-opacity="0.729"
     stroke-width="0.4"
     d="m 102.14385,-107.45266 -0.506,1.888 h 2.177 l 0.536,2 1.955,-1.955 1.793,1.793 0.572,-2.136 1.907,0.51 -0.94,-1.627 0.77,-0.445"
     id="path9" />
  <path
     fill="#ffffff"
     stroke="#343434"
     stroke-width="0.4"
     d="m 123.574,-91.757656 c 0.738,-0.676 0.994,-1.918 0.944,-3.521 -1.095,0.06 -1.486,-0.494 -1.853,-1.07 0.036,-0.485 -0.198,-1.295 -0.626,-2.337 0.105,-0.205 0.12,-0.54 0.532,-0.308 l 0.183,-0.317 c 0.168,-0.156 0.304,-0.122 0.426,0 0.55,-0.456 0.49,-0.304 0.664,-0.384 0.201,0.135 0.293,0.106 0.406,0.109 0.803,-0.334 0.589,-0.104 0.605,0 -0.112,0.93 -0.006,1.656 0.531,1.983 0.258,0.182 0.326,0.11 0.456,0.123 0.493,-0.163 0.507,-0.463 0.708,-0.708 0.408,-0.231 0.534,-0.06 0.622,0.166 -0.421,0.679 -0.665,1.58 -1.607,1.607 0.135,0.245 0.342,0.374 0.26,0.967 -0.287,2.302 0,2.789 0,4.182 -0.736,0.137 -1.666,-0.486 -2.25,-0.492 z"
     id="path10" />
  <path
     fill="#ffffff"
     stroke="#343434"
     stroke-width="0.4"
     d="m 122.472,-99.094656 c 0.627,0.883 0.775,1.817 0.87,2.612 m -0.156,-2.786 c 0.463,0.791 1.025,2.16 0.835,2.629 m -0.017,-2.856 c 0.354,1.003 0.447,1.861 0.975,2.508"
     id="path11" />
  <path
     fill="none"
     stroke="#ace6f8"
     stroke-width="0.4"
     d="m 158.34,-113.19866 -4.776,8.273 5.331,3.078 -5.31,9.198004"
     filter="url(#b)"
     opacity="0.483"
     id="path12" />
  <path
     fill="#ace6f8"
     d="m 153.367,-92.388656 c -0.213,-0.518 -1.424,-2.486 -1.424,-2.486 l 0.934,-0.108 z"
     filter="url(#c)"
     opacity="0.483"
     style="mix-blend-mode:normal"
     id="path13" />
  <path
     fill="#ace6f8"
     d="m 100.882,25.076 c -0.213,-0.518 -1.423,-2.485 -1.423,-2.485 l 0.934,-0.109 z"
     filter="url(#c)"
     opacity="0.483"
     transform="rotate(93.24,182.76115,-8.6089724)"
     id="path14" />
  <path
     fill="none"
     stroke="url(#d)"
     stroke-width="0.4"
     d="m 50.850557,-106.38466 c 16.828,-3.339 54.854003,-2.466 67.962003,-0.59 14.16,1.57 27.44,-1.695 41.85999,-0.789"
     id="path15"
     style="stroke:url(#d)" />
  <path
     fill="#b6fe4a"
     stroke="#b6fe4a"
     stroke-width="0.4"
     d="m 93.777003,-100.94066 c -0.08,0.664 -0.99,0.35 -1.393,0.627 0.656,-0.003 0.675,0.313 0.836,0.557004 -1.307,0.092 -1.68,0.703 -4.04,0.21 -1.697,-0.626004 -3.77,-0.950004 -5.78,-1.324004 l 2.228,2.298004 -1.88,-0.209 3.343,2.438 c -2.105,0.306 -2.782,0.067 -7.383,1.323 2.535,-0.131 5.041,-0.239 4.945,1.811 -0.253,0.886 0.255,1.145 1.115,1.114 2.796,-1.754 18.070997,0.277 13.999,-1.81 1.201997,-0.907 2.652997,-0.649 4.039997,-0.697 3.095,0.619 3.002,-0.123 1.183,-1.602 1.598,0.014 2.818,0.217 4.18,0.348 -1.625,-0.576 -3.59,-0.372 -4.807,-1.88 -0.038,-0.374 0.975,-0.175 0.976,-0.348 -3.09,-0.045 -5.08,-1.832 -8.775997,-1.950004 -0.755,0.045 -1.703,-0.295 -2.786,-0.906 z"
     id="path16" />
  <path
     fill="none"
     stroke="#343434"
     stroke-width="0.4"
     d="m 143.547,-101.85366 c 0.456,3.772004 5.81,6.688004 4.973,11.570004"
     id="path17" />
  <path
     fill="none"
     stroke="#343434"
     stroke-width="0.4"
     d="m 142.868,-99.957656 c 0.946,0.153 1.682,-0.568004 2.516,-0.453004 m -1.547,2.516004 c 2.552,-0.319 1.644,-0.48 2.453,-0.719 m -0.812,2.922 c 1.18,-0.692 1.886,-0.827 2.36,-0.688 m -0.954,2.563 c 0.702,-0.445 1.528,-0.248 2.234,-0.203 m -1.625,1.843 c 0.805,-0.412 1.388,0.138 2.079,0.22 m -1.642,1.577 c 0.371,-0.07 0.76,-0.003 1.173,0.22 m -6.423,-11.361004 c 0.637,-0.288 1.25,-0.341 1.845,-0.171"
     id="path18" />
</svg>
