<svg xmlns="http://www.w3.org/2000/svg" xmlns:xlink="http://www.w3.org/1999/xlink" viewBox="0 0 112 28" width="100%" preserveAspectRatio="xMinYMin meet">

    <!-- Boden element definition -->
    <path id="boden" fill="#d5fe4a" stroke="#d5fe4a" stroke-linecap="round" stroke-width=".813" d="M0 27.09V15.903c9.311-7.701 34.922.18 45.256-.278 31.31-7.826 60.25-3.971 67.037.278v11.175z"/>

    <!-- Other elements placed relative to the new layout -->
    <path fill="#568b60" stroke="#3a3a3a" stroke-width=".4" d="M24.8 19.312c.12-1.743-.042-3.7-1.394-6.547.185-.944.722-2.005 1.463-3.134 2.306-1 3.267-.923 4.736-1.254.468.607 1.067 1.078 2.09 1.88.284 3.62 1.211 5.479 1.218 7.453-1.971-.998-5.231 1.268-8.114 1.602z"/>
    <path fill="#568b60" stroke="#3a3a3a" stroke-width=".4" d="M29.361 9.248c-.928.093-2.38.464-3.865 1.114-.547.641-.986 1.426-1.254 2.438.692 1.885 1.573 3.79 1.254 6.303"/>
    <path fill="#568b60" stroke="#3a3a3a" stroke-width=".4" d="M28.177 11.512c.312.998.536 1.996.662 2.994"/>
    <path fill="#568b60" stroke="#3a3a3a" stroke-width=".4" d="M27.585 12.87c.723-.343 1.378-.551 1.916-.523"/>
    <ellipse cx="62.285" cy="4.634" fill="#e5e700" fill-opacity=".729" rx="1.724" ry="1.889"/>
    <ellipse cx="67.407" cy="4.634" fill="#e5e700" fill-opacity=".729" rx="1.724" ry="1.889"/>
    <path fill="none" stroke="#e5e700" stroke-opacity=".729" stroke-width=".4" d="m60.633 7.228-.506 1.888h2.177l.536 2 1.955-1.955 1.793 1.793.572-2.136 1.907.51-.94-1.627.77-.445"/>
    <path fill="#fff" stroke="#343434" stroke-width=".4" d="M74.794 22.923c.738-.676.994-1.918.944-3.521-1.095.06-1.486-.494-1.853-1.07.036-.485-.198-1.295-.626-2.337.105-.205.12-.54.532-.308l.183-.317c.168-.156.304-.122.426 0 .55-.456.49-.304.664-.384.201.135.293.106.406.109.803-.334.589-.104.605 0-.112.93-.006 1.656.531 1.983.258.182.326.11.456.123.493-.163.507-.463.708-.708.408-.231.534-.06.622.166-.421.679-.665 1.58-1.607 1.607.135.245.342.374.26.967-.287 2.302 0 2.789 0 4.182-.736.137-1.666-.486-2.25-.492z"/>
    <path fill="#fff" stroke="#343434" stroke-width=".4" d="M73.692 15.586c.627.883.775 1.817.87 2.612m-.156-2.786c.463.791 1.025 2.16.835 2.629m-.017-2.856c.354 1.003.447 1.861.975 2.508"/>
    <path fill="none" stroke="#ace6f8" stroke-width=".4" d="m109.56 1.482-4.776 8.273 5.331 3.078-5.31 9.198" filter="url(#b)" opacity=".483"/>
    <path fill="#ace6f8" d="M104.587 22.292c-.213-.518-1.424-2.486-1.424-2.486l.934-.108z" filter="url(#c)" opacity=".483" style="mix-blend-mode:normal"/>
    <path fill="#ace6f8" d="M100.882 25.076c-.213-.518-1.423-2.485-1.423-2.485l.934-.109z" filter="url(#c)" opacity=".483" transform="rotate(93.24 104.185 25.683)"/>
    <path fill="none" stroke="url(#d)" stroke-width=".4" d="M7.768 8.296c16.828-3.339 54.854-2.466 67.962-.59 14.16 1.57 27.44-1.695 41.86-.789"/>
    <path fill="#b6fe4a" stroke="#b6fe4a" stroke-width=".4" d="M44.997 13.74c-.08.664-.99.35-1.393.627.656-.003.675.313.836.557-1.307.092-1.68.703-4.04.21-1.697-.626-3.77-.95-5.78-1.324l2.228 2.298-1.88-.209 3.343 2.438c-2.105.306-2.782.067-7.383 1.323 2.535-.131 5.041-.239 4.945 1.811-.253.886.255 1.145 1.115 1.114 2.796-1.754 18.071.277 13.999-1.81 1.202-.907 2.653-.649 4.04-.697 3.095.619 3.002-.123 1.183-1.602 1.598.014 2.818.217 4.18.348-1.625-.576-3.59-.372-4.807-1.88-.038-.374.975-.175.976-.348-3.09-.045-5.08-1.832-8.776-1.95-.755.045-1.703-.295-2.786-.906z"/>
    <path fill="none" stroke="#343434" stroke-width=".4" d="M94.767 12.827c.456 3.772 5.81 6.688 4.973 11.57"/>
    <path fill="none" stroke="#343434" stroke-width=".4" d="M94.088 14.723c.946.153 1.682-.568 2.516-.453m-1.547 2.516c2.552-.319 1.644-.48 2.453-.719m-.812 2.922c1.18-.692 1.886-.827 2.36-.688m-.954 2.563c.702-.445 1.528-.248 2.234-.203m-1.625 1.843c.805-.412 1.388.138 2.079.22m-1.642 1.577c.371-.07.76-.003 1.173.22M93.9 13.16c.637-.288 1.25-.341 1.845-.171"/>
</svg>
