<?xml version="1.0" encoding="UTF-8" standalone="no"?>
<svg
   viewBox="0 0 3145.0707 188.75276"
   version="1.1"
   id="svg1"
   width="3145.0708"
   height="188.75276"
   xmlns:xlink="http://www.w3.org/1999/xlink"
   xmlns="http://www.w3.org/2000/svg"
   xmlns:svg="http://www.w3.org/2000/svg">
  <defs
     id="defs1">
    <linearGradient
       id="linearGradient15">
      <stop
         style="stop-color:#ed1b1b;stop-opacity:1;"
         offset="0"
         id="stop15" />
      <stop
         style="stop-color:#a65a17;stop-opacity:0;"
         offset="0.39231947"
         id="stop18" />
      <stop
         style="stop-color:#7d8016;stop-opacity:0;"
         offset="0.59490085"
         id="stop17" />
      <stop
         style="stop-color:#13e013;stop-opacity:1;"
         offset="1"
         id="stop16" />
    </linearGradient>
    <filter
       style="color-interpolation-filters:sRGB"
       id="filter12"
       x="-0.095362179"
       y="-0.016313426"
       width="1.1907244"
       height="1.0326269">
      <feGaussianBlur
         stdDeviation="0.098007337"
         id="feGaussianBlur12" />
    </filter>
    <filter
       style="color-interpolation-filters:sRGB"
       id="filter13"
       x="-0.12983938"
       y="-0.071267121"
       width="1.2596787"
       height="1.1425343">
      <feGaussianBlur
         stdDeviation="0.077020015"
         id="feGaussianBlur13" />
    </filter>
    <linearGradient
       xlink:href="#linearGradient15"
       id="linearGradient16"
       x1="4.02455"
       y1="7.506979"
       x2="111.59969"
       y2="8.7169304"
       gradientUnits="userSpaceOnUse"
       gradientTransform="matrix(0.24584157,0,0,0.24584157,4210.5854,-884.80802)" />
  </defs>
  <path
     fill="#ffffff"
     stroke="#ffffff"
     stroke-linecap="round"
     stroke-linejoin="round"
     stroke-width="0.199868"
     d="m 4238.2917,-877.74199 v -2.75028 c -2.289,-1.89335 -8.5851,0.0441 -11.1258,-0.0685 -7.6973,-1.92394 -14.812,-0.97622 -16.4805,0.0685 v 2.74728 z"
     id="path1"
     style="fill:#d5fe4a;fill-opacity:1;stroke:#d5fe4a;stroke-linejoin:miter;stroke-opacity:1" />
  <path
     style="fill:#568b60;fill-opacity:1;stroke:#3a3a3a;stroke-width:0.0983364;stroke-dasharray:none;stroke-opacity:1"
     d="m 4215.2084,-879.65425 c 0.03,-0.42851 -0.01,-0.90947 -0.3425,-1.60948 0.045,-0.23201 0.1774,-0.49291 0.3596,-0.7705 0.5669,-0.24577 0.803,-0.22693 1.1643,-0.3082 0.115,0.1492 0.2623,0.26486 0.5137,0.4623 0.07,0.88995 0.2978,1.34666 0.2996,1.83207 -0.4847,-0.2453 -1.2862,0.31176 -1.9947,0.39381 z"
     id="path2" />
  <path
     style="fill:#568b60;fill-opacity:1;stroke:#3a3a3a;stroke-width:0.0983364;stroke-dasharray:none;stroke-opacity:1"
     d="m 4216.3299,-882.1284 c -0.2283,0.0228 -0.585,0.11415 -0.9503,0.27395 -0.1344,0.15762 -0.2423,0.35046 -0.3082,0.59928 0.1702,0.46346 0.3867,0.93154 0.3082,1.54956"
     id="path3" />
  <path
     style="fill:#568b60;fill-opacity:1;stroke:#3a3a3a;stroke-width:0.0983364;stroke-dasharray:none;stroke-opacity:1"
     d="m 4216.0388,-881.57193 c 0.077,0.24542 0.1316,0.49084 0.1626,0.73625"
     id="path4" />
  <path
     style="fill:#568b60;fill-opacity:1;stroke:#3a3a3a;stroke-width:0.0983364;stroke-dasharray:none;stroke-opacity:1"
     d="m 4215.8932,-881.23805 c 0.1777,-0.0842 0.3388,-0.13538 0.4709,-0.12841"
     id="path5" />
  <ellipse
     style="fill:#e5e700;fill-opacity:0.729452;stroke:none;stroke-width:0.0661879;stroke-dasharray:none;stroke-opacity:1"
     id="path6"
     cx="4224.4238"
     cy="-883.2627"
     rx="0.42375207"
     ry="0.46449748" />
  <ellipse
     style="fill:#e5e700;fill-opacity:0.729452;stroke:none;stroke-width:0.0661879;stroke-dasharray:none;stroke-opacity:1"
     id="ellipse6"
     cx="4225.6831"
     cy="-883.2627"
     rx="0.42375207"
     ry="0.46449748" />
  <path
     style="fill:none;fill-opacity:0.729452;stroke:#e5e700;stroke-width:0.0983364;stroke-dasharray:none;stroke-opacity:0.729412"
     d="m 4224.0177,-882.62494 -0.1243,0.464 h 0.5352 l 0.1318,0.49165 0.4804,-0.48044 0.4409,0.44082 0.1407,-0.52519 0.4687,0.12558 -0.2311,-0.40018 0.1894,-0.10932"
     id="path7" />
  <path
     style="fill:#ffffff;fill-opacity:1;stroke:#343434;stroke-width:0.0983364;stroke-dasharray:none;stroke-opacity:1"
     d="m 4227.4991,-878.76653 c 0.1814,-0.16614 0.2445,-0.47141 0.232,-0.86559 -0.269,0.0149 -0.3652,-0.12137 -0.4554,-0.26292 0.01,-0.11939 -0.049,-0.3185 -0.154,-0.57478 0.026,-0.0503 0.03,-0.13262 0.1307,-0.0755 l 0.045,-0.0782 c 0.041,-0.0383 0.075,-0.03 0.1047,0 0.1351,-0.11208 0.1206,-0.0746 0.1632,-0.0943 0.05,0.0332 0.072,0.026 0.1,0.0267 0.1975,-0.0821 0.1449,-0.0254 0.1487,0 -0.028,0.2285 -0,0.40717 0.1307,0.48765 0.063,0.0447 0.08,0.0271 0.1121,0.03 0.1212,-0.04 0.1245,-0.11361 0.1741,-0.17406 0.1002,-0.0568 0.1313,-0.0149 0.1528,0.041 -0.1035,0.16684 -0.1633,0.38829 -0.395,0.39494 0.033,0.0604 0.084,0.092 0.064,0.23791 -0.07,0.56588 0,0.68546 0,1.02813 -0.1808,0.0336 -0.4094,-0.11953 -0.5533,-0.12107 z"
     id="path8" />
  <path
     style="fill:#ffffff;fill-opacity:1;stroke:#343434;stroke-width:0.0983364;stroke-dasharray:none;stroke-opacity:1"
     d="m 4227.2281,-880.57028 c 0.1542,0.21714 0.1905,0.44673 0.214,0.64208"
     id="path9" />
  <path
     style="fill:#ffffff;fill-opacity:1;stroke:#343434;stroke-width:0.0983364;stroke-dasharray:none;stroke-opacity:1"
     d="m 4227.4036,-880.61309 c 0.114,0.19457 0.2521,0.53116 0.2055,0.64636"
     id="path10" />
  <path
     style="fill:#ffffff;fill-opacity:1;stroke:#343434;stroke-width:0.0983364;stroke-dasharray:none;stroke-opacity:1"
     d="m 4227.6048,-880.66874 c 0.087,0.24643 0.1099,0.4574 0.2397,0.6164"
     id="path11" />
  <path
     style="opacity:0.483077;fill:none;fill-opacity:1;stroke:#ace6f8;stroke-width:0.4;stroke-dasharray:none;stroke-opacity:1;filter:url(#filter12)"
     d="m 103.56534,3.1341226 -4.776232,8.2726764 5.331492,3.078137 -5.31033,9.197757"
     id="path12"
     transform="matrix(0.24584157,0,0,0.24584157,4210.5854,-884.80802)" />
  <path
     style="display:inline;opacity:0.483077;mix-blend-mode:normal;fill:#ace6f8;fill-opacity:1;stroke:none;stroke-width:0.502222;stroke-dasharray:none;stroke-opacity:1;filter:url(#filter13)"
     d="m 98.592384,23.943407 c -0.213428,-0.517655 -1.423667,-2.485593 -1.423667,-2.485593 l 0.934058,-0.108142 z"
     id="path13"
     transform="matrix(0.24584157,0,0,0.24584157,4210.5854,-884.80802)" />
  <path
     style="display:inline;opacity:0.483077;fill:#ace6f8;fill-opacity:1;stroke:none;stroke-width:0.502222;stroke-dasharray:none;stroke-opacity:1;filter:url(#filter13)"
     d="m 100.88242,25.076111 c -0.21343,-0.517655 -1.423672,-2.485593 -1.423672,-2.485593 l 0.934062,-0.108142 z"
     id="path14"
     transform="matrix(-0.01389617,0.24544853,-0.24544853,-0.01389617,4242.4764,-903.30313)" />
  <path
     style="opacity:1;fill:none;fill-opacity:1;stroke:url(#linearGradient16);stroke-width:0.0983364;stroke-dasharray:none;stroke-opacity:1"
     d="m 4211.0212,-882.36237 c 4.1371,-0.82085 13.4855,-0.60644 16.708,-0.14528 3.481,0.38605 6.7458,-0.41643 10.2911,-0.19372"
     id="path15" />
  <path
     style="opacity:1;fill:#b6fe4a;fill-opacity:1;stroke:#b6fe4a;stroke-width:0.0983364;stroke-dasharray:none;stroke-opacity:1"
     d="m 4220.1738,-881.02402 c -0.02,0.16328 -0.2432,0.0861 -0.3425,0.1541 0.1614,-7.5e-4 0.1659,0.0769 0.2055,0.13698 -0.3212,0.0226 -0.4128,0.1727 -0.9931,0.0514 -0.4172,-0.15363 -0.9269,-0.23329 -1.4211,-0.32532 l 0.5479,0.56503 -0.4623,-0.0514 0.8219,0.59927 c -0.5176,0.0751 -0.6839,0.0164 -1.815,0.32532 0.6232,-0.0324 1.2392,-0.0588 1.2157,0.44518 -0.062,0.21771 0.062,0.28153 0.2739,0.27395 0.6875,-0.4312 4.4428,0.068 3.4416,-0.44517 0.2955,-0.22278 0.6523,-0.15943 0.9931,-0.17122 0.7611,0.15206 0.7382,-0.0304 0.2911,-0.39381 0.3928,0.003 0.6927,0.0532 1.0273,0.0856 -0.3993,-0.14168 -0.8824,-0.0915 -1.1814,-0.4623 -0.01,-0.092 0.2395,-0.0431 0.2397,-0.0856 -0.7597,-0.0111 -1.2489,-0.4504 -2.1574,-0.47942 -0.1857,0.0111 -0.4186,-0.0724 -0.6849,-0.22259 z"
     id="path18" />
  <path
     style="opacity:1;fill:none;fill-opacity:1;stroke:#343434;stroke-width:0.0983364;stroke-dasharray:none;stroke-opacity:1"
     d="m 4232.4094,-881.24853 c 0.112,0.9273 1.4284,1.6443 1.2224,2.8442"
     id="path19" />
  <path
     style="opacity:1;fill:none;fill-opacity:1;stroke:#343434;stroke-width:0.0983364;stroke-dasharray:none;stroke-opacity:1"
     d="m 4232.2425,-880.78236 c 0.2323,0.0376 0.4134,-0.1396 0.6184,-0.1114"
     id="path20" />
  <path
     style="opacity:1;fill:none;fill-opacity:1;stroke:#343434;stroke-width:0.0983364;stroke-dasharray:none;stroke-opacity:1"
     d="m 4232.4806,-880.27532 c 0.6274,-0.0783 0.4042,-0.11789 0.6031,-0.17669"
     id="path21" />
  <path
     style="opacity:1;fill:none;fill-opacity:1;stroke:#343434;stroke-width:0.0983364;stroke-dasharray:none;stroke-opacity:1"
     d="m 4232.884,-879.7337 c 0.29,-0.1701 0.4636,-0.20322 0.58,-0.16901"
     id="path22" />
  <path
     style="opacity:1;fill:none;fill-opacity:1;stroke:#343434;stroke-width:0.0983364;stroke-dasharray:none;stroke-opacity:1"
     d="m 4233.2297,-879.27274 c 0.1724,-0.10934 0.3757,-0.0609 0.5493,-0.0499"
     id="path23" />
  <path
     style="opacity:1;fill:none;fill-opacity:1;stroke:#343434;stroke-width:0.0983364;stroke-dasharray:none;stroke-opacity:1"
     d="m 4233.3795,-878.86941 c 0.1978,-0.10128 0.3411,0.0338 0.5109,0.0538"
     id="path24" />
  <path
     style="opacity:1;fill:none;fill-opacity:1;stroke:#343434;stroke-width:0.0983364;stroke-dasharray:none;stroke-opacity:1"
     d="m 4233.4871,-878.42766 c 0.091,-0.0171 0.1868,-8.1e-4 0.288,0.0538"
     id="path25" />
  <path
     style="opacity:1;fill:none;fill-opacity:1;stroke:#343434;stroke-width:0.0983364;stroke-dasharray:none;stroke-opacity:1"
     d="m 4232.1964,-881.16649 c 0.1562,-0.0709 0.3072,-0.0841 0.4533,-0.0423"
     id="path26" />
</svg>
