<?xml version="1.0" encoding="UTF-8" standalone="no"?>
<svg
   viewBox="0 0 113.107 29.138"
   version="1.1"
   id="svg1"
   sodipodi:docname="whitethinghw.svg"
   inkscape:export-filename="HalloweenTSmap2024n.svg"
   inkscape:export-xdpi="5000"
   inkscape:export-ydpi="5000"
   xml:space="preserve"
   inkscape:version="1.3 (0e150ed6c4, 2023-07-21)"
   xmlns:inkscape="http://www.inkscape.org/namespaces/inkscape"
   xmlns:sodipodi="http://sodipodi.sourceforge.net/DTD/sodipodi-0.dtd"
   xmlns:xlink="http://www.w3.org/1999/xlink"
   xmlns="http://www.w3.org/2000/svg"
   xmlns:svg="http://www.w3.org/2000/svg"><defs
     id="defs1"><linearGradient
       id="linearGradient15"
       inkscape:collect="always"><stop
         style="stop-color:#ed1b1b;stop-opacity:1;"
         offset="0"
         id="stop15" /><stop
         style="stop-color:#a65a17;stop-opacity:0;"
         offset="0.39231947"
         id="stop18" /><stop
         style="stop-color:#7d8016;stop-opacity:0;"
         offset="0.59490085"
         id="stop17" /><stop
         style="stop-color:#13e013;stop-opacity:1;"
         offset="1"
         id="stop16" /></linearGradient><filter
       inkscape:collect="always"
       style="color-interpolation-filters:sRGB"
       id="filter12"
       x="-0.095362182"
       y="-0.016313427"
       width="1.1907244"
       height="1.0326269"><feGaussianBlur
         inkscape:collect="always"
         stdDeviation="0.098007337"
         id="feGaussianBlur12" /></filter><filter
       inkscape:collect="always"
       style="color-interpolation-filters:sRGB"
       id="filter13"
       x="-0.12983937"
       y="-0.071267122"
       width="1.2596787"
       height="1.1425342"><feGaussianBlur
         inkscape:collect="always"
         stdDeviation="0.077020015"
         id="feGaussianBlur13" /></filter><linearGradient
       inkscape:collect="always"
       xlink:href="#linearGradient15"
       id="linearGradient16"
       x1="4.02455"
       y1="7.506979"
       x2="111.59969"
       y2="8.7169306"
       gradientUnits="userSpaceOnUse" /></defs><sodipodi:namedview
     id="namedview1"
     pagecolor="#000000"
     bordercolor="#000000"
     borderopacity="0.25"
     inkscape:showpageshadow="2"
     inkscape:pageopacity="0.0"
     inkscape:pagecheckerboard="0"
     inkscape:deskcolor="#909090"
     inkscape:zoom="4"
     inkscape:cx="55"
     inkscape:cy="-1.875"
     inkscape:window-width="1366"
     inkscape:window-height="705"
     inkscape:window-x="-8"
     inkscape:window-y="-8"
     inkscape:window-maximized="1"
     inkscape:current-layer="svg1" /><path
     fill="#ffffff"
     stroke="#ffffff"
     stroke-linecap="round"
     stroke-linejoin="round"
     stroke-width="0.813"
     d="m 112.6465,28.221812 v -20.082 c -12.236,-10.766 -37.15,4.776 -45.256,0 -34.096,-15.905 -59.2750001,-2.5779999 -67.03700004,0 v 20.647 z"
     id="path1-3"
     style="display:none"
     inkscape:export-filename=".\path1-3.svg"
     inkscape:export-xdpi="5000"
     inkscape:export-ydpi="5000" /><path
     fill="#ffffff"
     stroke="#ffffff"
     stroke-linecap="round"
     stroke-linejoin="round"
     stroke-width="0.813"
     d="M 112.7,28.742205 V 17.555015 C 103.38918,9.8534904 77.778709,17.734302 67.444,17.276426 36.133887,9.4504979 7.1939396,13.305483 0.407,17.555015 V 28.73 Z"
     id="path1"
     sodipodi:nodetypes="cccccc"
     style="fill:#d5fe4a;fill-opacity:1;stroke:#d5fe4a;stroke-linejoin:miter;stroke-opacity:1" /><path
     style="fill:#568b60;fill-opacity:1;stroke:#3a3a3a;stroke-width:0.4;stroke-dasharray:none;stroke-opacity:1"
     d="m 18.804736,20.963798 c 0.12135,-1.743029 -0.0418,-3.699435 -1.392944,-6.546834 0.184603,-0.943732 0.721739,-2.004975 1.462591,-3.134123 2.30595,-0.999708 3.26646,-0.923063 4.736007,-1.253649 0.467634,0.606884 1.067144,1.077334 2.089415,1.880474 0.284596,3.620023 1.211716,5.477748 1.218825,7.452246 -1.971541,-0.997793 -5.231795,1.268111 -8.113894,1.601886 z"
     id="path2"
     sodipodi:nodetypes="ccccccc" /><path
     style="fill:#568b60;fill-opacity:1;stroke:#3a3a3a;stroke-width:0.4;stroke-dasharray:none;stroke-opacity:1"
     d="m 23.366625,10.899782 c -0.928629,0.09286 -2.379612,0.464315 -3.865418,1.114355 -0.546458,0.641117 -0.985445,1.425529 -1.253649,2.437651 0.692236,1.885189 1.572907,3.789167 1.253649,6.303068"
     id="path3"
     sodipodi:nodetypes="cccc" /><path
     style="fill:#568b60;fill-opacity:1;stroke:#3a3a3a;stroke-width:0.4;stroke-dasharray:none;stroke-opacity:1"
     d="m 22.182623,13.163315 c 0.311871,0.998276 0.535493,1.996552 0.661648,2.994828"
     id="path4"
     sodipodi:nodetypes="cc" /><path
     style="fill:#568b60;fill-opacity:1;stroke:#3a3a3a;stroke-width:0.4;stroke-dasharray:none;stroke-opacity:1"
     d="m 21.590622,14.521435 c 0.722591,-0.342434 1.378103,-0.550711 1.915298,-0.522354"
     id="path5"
     sodipodi:nodetypes="cc" /><ellipse
     style="fill:#e5e700;fill-opacity:0.729452;stroke:none;stroke-width:0.269231;stroke-dasharray:none;stroke-opacity:1"
     id="path6"
     cx="56.290447"
     cy="6.285748"
     rx="1.7236794"
     ry="1.8894179" /><ellipse
     style="fill:#e5e700;fill-opacity:0.729452;stroke:none;stroke-width:0.269231;stroke-dasharray:none;stroke-opacity:1"
     id="ellipse6"
     cx="61.412239"
     cy="6.285748"
     rx="1.7236794"
     ry="1.8894179" /><path
     style="fill:none;fill-opacity:0.729452;stroke:#e5e700;stroke-width:0.4;stroke-dasharray:none;stroke-opacity:0.72941178"
     d="m 54.638204,8.880014 -0.505734,1.887427 h 2.177266 l 0.535862,1.999864 1.954303,-1.954303 1.793136,1.793136 0.572424,-2.136315 1.906379,0.510812 -0.939796,-1.6277736 0.770221,-0.444687"
     id="path7" /><path
     style="fill:#ffffff;fill-opacity:1;stroke:#343434;stroke-width:0.4;stroke-dasharray:none;stroke-opacity:1"
     d="m 68.799436,24.574745 c 0.73764,-0.675805 0.994237,-1.917541 0.94343,-3.520931 -1.094272,0.06073 -1.485497,-0.49371 -1.852363,-1.069462 0.03592,-0.485653 -0.198371,-1.295558 -0.626476,-2.33804 0.105607,-0.204784 0.120306,-0.539438 0.531902,-0.307094 l 0.183535,-0.317893 c 0.167943,-0.155682 0.304333,-0.122044 0.425988,0 0.549459,-0.455899 0.490555,-0.303435 0.664092,-0.383413 0.201047,0.135013 0.292592,0.105773 0.40556,0.108669 0.803024,-0.334129 0.589233,-0.103359 0.604779,0 -0.111742,0.929469 -0.0052,1.656223 0.531501,1.98359 0.257917,0.181938 0.325599,0.110231 0.456035,0.122194 0.492872,-0.162608 0.506617,-0.46211 0.708001,-0.708001 0.407815,-0.231065 0.534398,-0.06037 0.621617,0.166562 -0.42096,0.678654 -0.664217,1.579435 -1.606471,1.606471 0.134523,0.245649 0.342137,0.374351 0.25931,0.967759 -0.286662,2.301786 -5.3e-5,2.788215 0,4.182069 -0.735415,0.136748 -1.665153,-0.486203 -2.25044,-0.49248 z"
     id="path8"
     sodipodi:nodetypes="cccccccccccccccccc" /><path
     style="fill:#ffffff;fill-opacity:1;stroke:#343434;stroke-width:0.4;stroke-dasharray:none;stroke-opacity:1"
     d="m 67.697048,17.237675 c 0.627322,0.883247 0.774999,1.817142 0.870589,2.611768"
     id="path9"
     sodipodi:nodetypes="cc" /><path
     style="fill:#ffffff;fill-opacity:1;stroke:#343434;stroke-width:0.4;stroke-dasharray:none;stroke-opacity:1"
     d="m 68.410932,17.063557 c 0.463806,0.791424 1.02531,2.160552 0.835766,2.62918"
     id="path10"
     sodipodi:nodetypes="cc" /><path
     style="fill:#ffffff;fill-opacity:1;stroke:#343434;stroke-width:0.4;stroke-dasharray:none;stroke-opacity:1"
     d="m 69.229286,16.837203 c 0.35404,1.002391 0.446903,1.860537 0.97506,2.507298"
     id="path11"
     sodipodi:nodetypes="cc" /><path
     style="fill:none;fill-opacity:1;stroke:#ace6f8;stroke-width:0.4;stroke-dasharray:none;stroke-opacity:1;filter:url(#filter12);opacity:0.48307692"
     d="m 103.56534,3.1341226 -4.776232,8.2726764 5.331492,3.078137 -5.31033,9.197757"
     id="path12" /><path
     style="display:inline;opacity:0.483077;mix-blend-mode:normal;fill:#ace6f8;fill-opacity:1;stroke:none;stroke-width:0.502222;stroke-dasharray:none;stroke-opacity:1;filter:url(#filter13)"
     d="m 98.592384,23.943407 c -0.213428,-0.517655 -1.423667,-2.485593 -1.423667,-2.485593 l 0.934058,-0.108142 z"
     id="path13" /><path
     style="display:inline;opacity:0.483077;fill:#ace6f8;fill-opacity:1;stroke:none;stroke-width:0.502222;stroke-dasharray:none;stroke-opacity:1;filter:url(#filter13)"
     d="m 100.88242,25.076111 c -0.21343,-0.517655 -1.423672,-2.485593 -1.423672,-2.485593 l 0.934062,-0.108142 z"
     id="path14"
     transform="rotate(93.240365,100.40734,23.676684)" /><path
     style="opacity:1;fill:none;fill-opacity:1;stroke:url(#linearGradient16);stroke-width:0.4;stroke-dasharray:none;stroke-opacity:1"
     d="M 1.7729275,9.948093 C 18.601086,6.6091463 56.627113,7.4812917 69.735147,9.3571172 83.894858,10.927462 97.174902,7.663221 111.59593,8.5691495"
     id="path15"
     sodipodi:nodetypes="ccc" /><path
     style="opacity:1;fill:#b6fe4a;fill-opacity:1;stroke:#b6fe4a;stroke-width:0.4;stroke-dasharray:none;stroke-opacity:1"
     d="m 39.002415,15.392024 c -0.08042,0.664158 -0.989228,0.35044 -1.392944,0.626825 0.656195,-0.0031 0.67479,0.312645 0.835766,0.557177 -1.306641,0.0918 -1.679238,0.702509 -4.039536,0.208942 -1.697146,-0.624906 -3.770421,-0.94891 -5.780715,-1.323297 l 2.22871,2.298357 -1.880474,-0.208941 3.343064,2.43765 c -2.105125,0.305578 -2.781674,0.06694 -7.3826,1.323297 2.534901,-0.131608 5.040608,-0.239006 4.944949,1.810826 -0.252842,0.885576 0.25442,1.145184 1.114355,1.114355 2.796439,-1.754013 18.071816,0.276779 13.999081,-1.810827 1.202078,-0.906183 2.65356,-0.648481 4.039536,-0.696471 3.095861,0.618548 3.002752,-0.123532 1.184002,-1.601885 1.598077,0.01351 2.817653,0.216274 4.17883,0.348236 -1.623999,-0.576279 -3.589315,-0.372404 -4.805655,-1.880474 -0.03837,-0.374301 0.974187,-0.175319 0.975061,-0.348236 -3.090198,-0.04498 -5.079792,-1.832075 -8.775544,-1.95012 -0.75515,0.04515 -1.702641,-0.294377 -2.785886,-0.905414 z"
     id="path18"
     sodipodi:nodetypes="ccccccccccccccccccc" /><path
     style="opacity:1;fill:none;fill-opacity:1;stroke:#343434;stroke-width:0.4;stroke-dasharray:none;stroke-opacity:1"
     d="m 88.772796,14.478799 c 0.455543,3.771923 5.810355,6.68845 4.972293,11.569242"
     id="path19"
     sodipodi:nodetypes="cc" /><path
     style="opacity:1;fill:none;fill-opacity:1;stroke:#343434;stroke-width:0.4;stroke-dasharray:none;stroke-opacity:1"
     d="m 88.09375,16.375 c 0.945179,0.152816 1.68169,-0.567838 2.515625,-0.453125"
     id="path20"
     sodipodi:nodetypes="cc" /><path
     style="opacity:1;fill:none;fill-opacity:1;stroke:#343434;stroke-width:0.4;stroke-dasharray:none;stroke-opacity:1"
     d="m 89.0625,18.4375 c 2.551733,-0.318403 1.644128,-0.479563 2.453125,-0.71875"
     id="path21"
     sodipodi:nodetypes="cc" /><path
     style="opacity:1;fill:none;fill-opacity:1;stroke:#343434;stroke-width:0.4;stroke-dasharray:none;stroke-opacity:1"
     d="m 90.703125,20.640625 c 1.179795,-0.691916 1.885986,-0.82665 2.359375,-0.6875"
     id="path22"
     sodipodi:nodetypes="cc" /><path
     style="opacity:1;fill:none;fill-opacity:1;stroke:#343434;stroke-width:0.4;stroke-dasharray:none;stroke-opacity:1"
     d="M 92.109375,22.515625 C 92.810879,22.070863 93.637498,22.267798 94.34375,22.3125"
     id="path23"
     sodipodi:nodetypes="cc" /><path
     style="opacity:1;fill:none;fill-opacity:1;stroke:#343434;stroke-width:0.4;stroke-dasharray:none;stroke-opacity:1"
     d="m 92.71875,24.15625 c 0.804609,-0.411986 1.387388,0.13729 2.078125,0.21875"
     id="path24"
     sodipodi:nodetypes="cc" /><path
     style="opacity:1;fill:none;fill-opacity:1;stroke:#343434;stroke-width:0.4;stroke-dasharray:none;stroke-opacity:1"
     d="m 93.15625,25.953125 c 0.370252,-0.0697 0.759961,-0.0032 1.171875,0.21875"
     id="path25"
     sodipodi:nodetypes="cc" /><path
     style="opacity:1;fill:none;fill-opacity:1;stroke:#343434;stroke-width:0.4;stroke-dasharray:none;stroke-opacity:1"
     d="M 87.90625,14.8125 C 88.541837,14.524169 89.156079,14.470629 89.75,14.640625"
     id="path26"
     sodipodi:nodetypes="cc" /></svg>
